<svg xmlns="http://www.w3.org/2000/svg" width="16" height="16" viewBox="0 0 16 16">
  <defs>
    <style>
      .i-color {
        fill: #000;
        fill-rule: evenodd;
      }
    </style>
  </defs>
  <path id="file_type_nim.svg" class="i-color" d="m7.9691 1.6966-1.0226 0.98325c-0.81661-0.0338-1.5272 0.14453-2.2418 0.31465l-1.0619-0.82594-0.62928 1.2979c-0.6591 0.36142-0.84314 0.56475-1.1012 0.82593l-0.94392-0.3933 0.55062 2.3205 0.0431 0.0831 1.1762 3.3386c0.86138 1.793 3.5146 2.6744 5.2309 2.6744 1.7163 0 4.3695-0.88146 5.2309-2.6744l1.1762-3.3386 0.0431-0.0831 0.55062-2.3205-0.94392 0.3933c-0.25811-0.26118-0.44215-0.46451-1.1012-0.82593l-0.62928-1.2979-1.0619 0.82594c-0.71465-0.17012-1.4252-0.34843-2.2418-0.31465zm0 2.8318c2.5996 0 4.7785 1.2136 5.222 2.6074l-1.053 1.365-1.4552 0.43263-2.7138-1.5339-2.7138 1.5339-1.4552-0.43263-1.053-1.365c0.44289-1.3937 2.5703-2.6073 5.222-2.6073z"/>
</svg>
